<svg width="180" height="26" viewBox="0 0 180 26" fill="none" xmlns="http://www.w3.org/2000/svg">
<path d="M11.2 3.66273H21.8V14.3427C21.8 20.3827 16.92 25.3027 10.88 25.3027C5.32 25.3027 0.76 21.1827 0.04 15.8227H3.04C3.72 19.5427 6.96 22.3427 10.88 22.3427C15.28 22.3427 18.84 18.7427 18.84 14.3427V6.62273H12.4L6.4 12.6227V12.5827H0V9.62273H5.2L11.2 3.66273ZM51.6272 25.1027H48.6672V11.1827C48.6672 8.46273 46.4672 6.30273 43.7472 6.30273C41.0272 6.30273 38.8272 8.50273 38.8272 11.2227V25.1027H35.8672V11.1827C35.8672 8.46273 33.6672 6.30273 30.9472 6.30273C28.2672 6.30273 26.0672 8.50273 26.0672 11.2227V25.1027H23.1072V11.1827C23.1072 6.82273 26.6272 3.34273 30.9472 3.34273C33.5872 3.34273 35.9072 4.62273 37.3472 6.62273C38.7872 4.62273 41.1072 3.34273 43.7472 3.34273C48.1072 3.34273 51.6272 6.86273 51.6272 11.2227V25.1027ZM74.8131 14.3427V25.1027H71.8531V21.8627C69.8531 23.9827 67.0131 25.3027 63.8931 25.3027C57.8531 25.3027 52.9331 20.3827 52.9331 14.3427C52.9331 8.30273 57.8531 3.42273 63.8931 3.42273C69.9331 3.42273 74.8131 8.30273 74.8131 14.3427ZM63.8931 22.3427C68.2931 22.3427 71.8531 18.7427 71.8531 14.3427C71.8531 9.94273 68.2931 6.38273 63.8931 6.38273C59.4931 6.38273 55.8931 9.94273 55.8931 14.3427C55.8931 18.7427 59.4931 22.3427 63.8931 22.3427ZM76.1184 14.3427C76.1184 8.30273 80.9984 3.42273 87.0384 3.38273V6.34273C82.6384 6.38273 79.0784 9.94273 79.0784 14.3427V25.1027H76.1184V14.3427ZM88.3662 14.3427V0.502734H91.3262V9.90273H110.166V12.8627H91.3262V14.3427C91.3262 18.7427 94.8862 22.3427 99.3262 22.3427C103.206 22.3427 106.446 19.5427 107.166 15.8227H110.166C109.446 21.1827 104.846 25.3027 99.3262 25.3027C93.2462 25.3027 88.3662 20.3827 88.3662 14.3427ZM130.393 0.502734H133.353V14.3427C133.353 20.3827 128.473 25.3027 122.433 25.3027C116.393 25.3027 111.473 20.3827 111.473 14.3427C111.473 8.30273 116.393 3.42273 122.433 3.42273C125.553 3.42273 128.393 4.74273 130.393 6.86273V0.502734ZM130.393 14.3427C130.393 9.94273 126.833 6.38273 122.433 6.38273C118.033 6.38273 114.433 9.94273 114.433 14.3427C114.433 18.7427 118.033 22.3427 122.433 22.3427C126.833 22.3427 130.393 18.7427 130.393 14.3427ZM156.539 14.3427V25.1027H153.579V21.8627C151.579 23.9827 148.739 25.3027 145.619 25.3027C139.579 25.3027 134.659 20.3827 134.659 14.3427C134.659 8.30273 139.579 3.42273 145.619 3.42273C151.659 3.42273 156.539 8.30273 156.539 14.3427ZM145.619 22.3427C150.019 22.3427 153.579 18.7427 153.579 14.3427C153.579 9.94273 150.019 6.38273 145.619 6.38273C141.219 6.38273 137.619 9.94273 137.619 14.3427C137.619 18.7427 141.219 22.3427 145.619 22.3427ZM168.804 3.42273C174.844 3.42273 179.724 8.30273 179.724 14.3427C179.724 20.3827 174.844 25.3027 168.804 25.3027C162.764 25.3027 157.844 20.3827 157.844 14.3427C157.844 8.30273 162.764 3.42273 168.804 3.42273ZM168.804 22.3427C173.204 22.3427 176.764 18.7427 176.764 14.3427C176.764 9.94273 173.204 6.38273 168.804 6.38273C164.404 6.38273 160.804 9.94273 160.804 14.3427C160.804 18.7427 164.404 22.3427 168.804 22.3427Z" fill="#292D32"/>
</svg>
