<svg width="25" height="25" viewBox="0 0 25 25" fill="none" xmlns="http://www.w3.org/2000/svg">
<path d="M14.2299 3.55555L15.9899 7.07555C16.2299 7.56555 16.8699 8.03555 17.4099 8.12555L20.5999 8.65555C22.6399 8.99555 23.1199 10.4755 21.6499 11.9355L19.1699 14.4155C18.7499 14.8355 18.5199 15.6455 18.6499 16.2255L19.3599 19.2955C19.9199 21.7255 18.6299 22.6655 16.4799 21.3955L13.4899 19.6255C12.9499 19.3055 12.0599 19.3055 11.5099 19.6255L8.51991 21.3955C6.37991 22.6655 5.07991 21.7155 5.63991 19.2955L6.34991 16.2255C6.47991 15.6455 6.24991 14.8355 5.82991 14.4155L3.34991 11.9355C1.88991 10.4755 2.35991 8.99555 4.39991 8.65555L7.58991 8.12555C8.11991 8.03555 8.75991 7.56555 8.99991 7.07555L10.7599 3.55555C11.7199 1.64555 13.2799 1.64555 14.2299 3.55555Z" stroke="#292D32" stroke-width="1.5" stroke-linecap="round" stroke-linejoin="round"/>
</svg>
