<svg width="25" height="25" viewBox="0 0 25 25" fill="none" xmlns="http://www.w3.org/2000/svg">
<path d="M12.5 22.0454C18.0228 22.0454 22.5 17.5683 22.5 12.0454C22.5 6.52256 18.0228 2.04541 12.5 2.04541C6.97715 2.04541 2.5 6.52256 2.5 12.0454C2.5 17.5683 6.97715 22.0454 12.5 22.0454Z" stroke="#292D32" stroke-width="1.5" stroke-linecap="round" stroke-linejoin="round"/>
<path d="M8.49961 3.04541H9.49961C7.54961 8.88541 7.54961 15.2054 9.49961 21.0454H8.49961" stroke="#292D32" stroke-width="1.5" stroke-linecap="round" stroke-linejoin="round"/>
<path d="M15.5 3.04541C17.45 8.88541 17.45 15.2054 15.5 21.0454" stroke="#292D32" stroke-width="1.5" stroke-linecap="round" stroke-linejoin="round"/>
<path d="M3.5 16.0454V15.0454C9.34 16.9954 15.66 16.9954 21.5 15.0454V16.0454" stroke="#292D32" stroke-width="1.5" stroke-linecap="round" stroke-linejoin="round"/>
<path d="M3.5 9.04551C9.34 7.09551 15.66 7.09551 21.5 9.04551" stroke="#292D32" stroke-width="1.5" stroke-linecap="round" stroke-linejoin="round"/>
</svg>
